<?xml version="1.0" ?><svg viewBox="0 0 64 64" xmlns="http://www.w3.org/2000/svg"><g data-name="20-sync" id="_20-sync"><path d="M55.518,16.523A27.984,27.984,0,0,0,3,30h8A19.985,19.985,0,0,1,47.511,18.747L41,20,56,30l5-15Z" style="fill:#e36861"/><path d="M8.482,47.477A27.984,27.984,0,0,0,61,34H53A19.985,19.985,0,0,1,16.489,45.253L23,44,8,34,3,49Z" style="fill:#e36861"/><path d="M3,31h8a1,1,0,0,0,1-1A18.985,18.985,0,0,1,46.686,19.312a1,1,0,0,0,1.651-1.129A20.985,20.985,0,0,0,10.023,29h-6A26.985,26.985,0,0,1,54.643,17.006a1,1,0,0,0,1.143.48l3.671-1.019L55.465,28.441l-13.91-9.273a1,1,0,0,0-1.11,1.664l15,10a1,1,0,0,0,1.5-.516l5-15a1,1,0,0,0-1.217-1.28L56,15.351A28.983,28.983,0,0,0,2,30,1,1,0,0,0,3,31Z"/><path d="M61,33H53a1,1,0,0,0-1,1A18.985,18.985,0,0,1,17.314,44.688a1,1,0,0,0-1.651,1.129A20.985,20.985,0,0,0,53.977,35h6.005A26.985,26.985,0,0,1,9.357,46.994a1,1,0,0,0-1.143-.48L4.543,47.533,8.535,35.559l13.91,9.273a1,1,0,1,0,1.11-1.664l-15-10a1,1,0,0,0-1.5.516l-5,15a1,1,0,0,0,1.217,1.28L8,48.649A28.983,28.983,0,0,0,62,34,1,1,0,0,0,61,33Z"/></g></svg>